<?xml version="1.0" encoding="utf-8"?>
<!-- Generator: Adobe Illustrator 24.1.1, SVG Export Plug-In . SVG Version: 6.00 Build 0)  -->
<svg version="1.1" id="Layer_1" xmlns="http://www.w3.org/2000/svg" xmlns:xlink="http://www.w3.org/1999/xlink" x="0px" y="0px"
	 viewBox="0 0 512 512" style="enable-background:new 0 0 512 512;" xml:space="preserve">
<g>
	<path d="M486.4,332.8h-25.6c0,14.1-11.5,25.6-25.6,25.6H128c-6.7,0-13.3,2.7-18.1,7.5l-58.7,58.7V76.8c0-14.1,11.5-25.6,25.6-25.6
		h358.4c14.1,0,25.6,11.5,25.6,25.6v256H486.4H512v-256C512,34.4,477.6,0,435.2,0H76.8C34.4,0,0,34.4,0,76.8v409.6
		c0,10.4,6.2,19.7,15.8,23.7c9.6,4,20.6,1.8,27.9-5.5l94.9-94.9l296.6,0c42.4,0,76.8-34.4,76.8-76.8H486.4z"/>
</g>
</svg>
